# xmcd
#
# Track frame offsets:
#	182
#	13495
#	25482
#	37467
#	50230
#	59802
#	71965
#	84265
#	96042
#	106797
#	118402
#	128515
#	142670
#	155922
#
# Disc length: 2247
#
# Revision: 2
# Processed by: cddbd v1.5.1PL0 Copyright (c) Steve Scherf et al.
# Submitted via: dBpowerAMP V4.0
# Normalized: r0:TDELIM( - ),TSWAP
#
DISCID=d508c50e
DTITLE=Various Artist - Country Ladies
DYEAR=1900
DGENRE=
TTITLE0=Lynn Anderson - 1.Rose Garden
TTITLE1=Donna Fargo - 2.United State Of America
TTITLE2=Dolly Parton - 3.Letter To Heaven
TTITLE3=Billie Jo Spears - 4.You've Got The Power
TTITLE4=Lynn Anderson - 5.Snow Bird
TTITLE5=Donna Fargo - 6.Funny Face
TTITLE6=Dolly Parton - 7.Two Little Orphans
TTITLE7=Billie Jo Spears - 8.Try A Little Kindness
TTITLE8=Lynn Anderson - 9.Heaven's Just A Sin Away
TTITLE9=Donna Fargo - 10.Happiest Girl In The Whole USA
TTITLE10=Dolly Parton - 11.Release Me
TTITLE11=Billie Jo Spears - 12.Mr Waker It's All Over
TTITLE12=Lynn Anderson - 13.Top Of The World
TTITLE13=Dolly Parton - 14.Little Blossom
EXTD=
EXTT0=
EXTT1=
EXTT2=
EXTT3=
EXTT4=
EXTT5=
EXTT6=
EXTT7=
EXTT8=
EXTT9=
EXTT10=
EXTT11=
EXTT12=
EXTT13=
PLAYORDER=
